<svg width="34" height="35" viewBox="0 0 34 35" fill="none" xmlns="http://www.w3.org/2000/svg">
<path d="M3.88462 6.76953C3.25218 6.76953 2.64564 7.02076 2.19844 7.46796C1.75124 7.91516 1.5 8.52169 1.5 9.15413V30.6155C1.5 31.2479 1.75124 31.8545 2.19844 32.3017C2.64564 32.7489 3.25218 33.0001 3.88462 33.0001H30.1154C30.7478 33.0001 31.3544 32.7489 31.8016 32.3017C32.2488 31.8545 32.5 31.2479 32.5 30.6155V9.15413C32.5 8.52169 32.2488 7.91516 31.8016 7.46796C31.3544 7.02076 30.7478 6.76953 30.1154 6.76953H25.3462" stroke="#D1D5DB" stroke-width="2.21429" stroke-linecap="round" stroke-linejoin="round"/>
<path d="M8.65399 2V11.5384" stroke="#D1D5DB" stroke-width="2.21429" stroke-linecap="round" stroke-linejoin="round"/>
<path d="M25.3463 2V11.5384" stroke="#D1D5DB" stroke-width="2.21429" stroke-linecap="round" stroke-linejoin="round"/>
<path d="M8.65399 6.76953H20.577" stroke="#D1D5DB" stroke-width="2.21429" stroke-linecap="round" stroke-linejoin="round"/>
<path d="M8.65367 19.885C9.31215 19.885 9.84597 19.3512 9.84597 18.6927C9.84597 18.0342 9.31215 17.5004 8.65367 17.5004C7.99518 17.5004 7.46136 18.0342 7.46136 18.6927C7.46136 19.3512 7.99518 19.885 8.65367 19.885Z" stroke="#D1D5DB" stroke-width="2.21429" stroke-linecap="round" stroke-linejoin="round"/>
<path d="M17.0003 19.885C17.6588 19.885 18.1926 19.3512 18.1926 18.6927C18.1926 18.0342 17.6588 17.5004 17.0003 17.5004C16.3418 17.5004 15.808 18.0342 15.808 18.6927C15.808 19.3512 16.3418 19.885 17.0003 19.885Z" stroke="#D1D5DB" stroke-width="2.21429" stroke-linecap="round" stroke-linejoin="round"/>
<path d="M25.346 19.885C26.0045 19.885 26.5383 19.3512 26.5383 18.6927C26.5383 18.0342 26.0045 17.5004 25.346 17.5004C24.6875 17.5004 24.1537 18.0342 24.1537 18.6927C24.1537 19.3512 24.6875 19.885 25.346 19.885Z" stroke="#D1D5DB" stroke-width="2.21429" stroke-linecap="round" stroke-linejoin="round"/>
<path d="M8.65367 27.0384C9.31215 27.0384 9.84597 26.5046 9.84597 25.8461C9.84597 25.1876 9.31215 24.6538 8.65367 24.6538C7.99518 24.6538 7.46136 25.1876 7.46136 25.8461C7.46136 26.5046 7.99518 27.0384 8.65367 27.0384Z" stroke="#D1D5DB" stroke-width="2.21429" stroke-linecap="round" stroke-linejoin="round"/>
</svg>
