<svg width="36" height="35" viewBox="0 0 36 35" fill="none" xmlns="http://www.w3.org/2000/svg">
<path d="M18 2.91663C14.2614 2.92729 10.6697 4.37338 7.96669 6.95621V4.37496C7.96669 3.98819 7.81304 3.61725 7.53955 3.34376C7.26606 3.07027 6.89513 2.91663 6.50835 2.91663C6.12158 2.91663 5.75065 3.07027 5.47716 3.34376C5.20367 3.61725 5.05002 3.98819 5.05002 4.37496V10.9375C5.05002 11.3242 5.20367 11.6952 5.47716 11.9687C5.75065 12.2421 6.12158 12.3958 6.50835 12.3958H13.0709C13.4576 12.3958 13.8286 12.2421 14.1021 11.9687C14.3755 11.6952 14.5292 11.3242 14.5292 10.9375C14.5292 10.5507 14.3755 10.1798 14.1021 9.90626C13.8286 9.63277 13.4576 9.47913 13.0709 9.47913H9.57085C11.4459 7.51965 13.9451 6.27466 16.6387 5.95823C19.3323 5.64179 22.052 6.27367 24.3301 7.74523C26.6083 9.21679 28.3026 11.4361 29.1217 14.0215C29.9409 16.607 29.8337 19.397 28.8185 21.912C27.8034 24.427 25.9438 26.5097 23.5594 27.8021C21.175 29.0945 18.4149 29.5158 15.7535 28.9936C13.0922 28.4714 10.6959 27.0383 8.97672 24.9407C7.25752 22.8431 6.32283 20.212 6.33335 17.5C6.33335 17.1132 6.17971 16.7423 5.90622 16.4688C5.63273 16.1953 5.26179 16.0416 4.87502 16.0416C4.48825 16.0416 4.11731 16.1953 3.84382 16.4688C3.57033 16.7423 3.41669 17.1132 3.41669 17.5C3.41669 20.3843 4.27198 23.2038 5.87442 25.602C7.47686 28.0002 9.75446 29.8694 12.4192 30.9732C15.084 32.077 18.0162 32.3658 20.8451 31.8031C23.674 31.2404 26.2725 29.8514 28.312 27.8119C30.3515 25.7724 31.7404 23.1739 32.3031 20.345C32.8658 17.5161 32.577 14.5839 31.4733 11.9192C30.3695 9.2544 28.5003 6.9768 26.1021 5.37436C23.7039 3.77192 20.8843 2.91663 18 2.91663ZM18 11.6666C17.6132 11.6666 17.2423 11.8203 16.9688 12.0938C16.6953 12.3673 16.5417 12.7382 16.5417 13.125V17.5C16.5417 17.8867 16.6953 18.2577 16.9688 18.5312C17.2423 18.8046 17.6132 18.9583 18 18.9583H20.9167C21.3035 18.9583 21.6744 18.8046 21.9479 18.5312C22.2214 18.2577 22.375 17.8867 22.375 17.5C22.375 17.1132 22.2214 16.7423 21.9479 16.4688C21.6744 16.1953 21.3035 16.0416 20.9167 16.0416H19.4584V13.125C19.4584 12.7382 19.3047 12.3673 19.0312 12.0938C18.7577 11.8203 18.3868 11.6666 18 11.6666Z" fill="#D1D5DB"/>
</svg>
