<svg width="36" height="36" viewBox="0 0 36 36" fill="none" xmlns="http://www.w3.org/2000/svg">
<mask id="path-1-inside-1_681_3582" fill="white">
<path d="M29.6852 18.7262C29.4481 18.4563 29.3173 18.1093 29.3173 17.75C29.3173 17.3907 29.4481 17.0437 29.6852 16.7737L31.5786 14.6437C31.7872 14.411 31.9168 14.1182 31.9487 13.8073C31.9805 13.4964 31.9131 13.1833 31.7561 12.9131L28.7977 7.79519C28.6423 7.52527 28.4056 7.31132 28.1214 7.18383C27.8372 7.05633 27.52 7.02182 27.215 7.08519L24.4342 7.64727C24.0804 7.72038 23.712 7.66145 23.3986 7.4816C23.0852 7.30175 22.8485 7.01342 22.7332 6.67102L21.8309 3.96414C21.7316 3.67035 21.5426 3.41517 21.2904 3.23468C21.0383 3.05419 20.7358 2.95751 20.4257 2.95831H14.509C14.1864 2.94147 13.8672 3.03068 13.6001 3.2123C13.333 3.39393 13.1327 3.65798 13.0298 3.96414L12.2015 6.67102C12.0861 7.01342 11.8494 7.30175 11.536 7.4816C11.2227 7.66145 10.8543 7.72038 10.5005 7.64727L7.64566 7.08519C7.35656 7.04433 7.06183 7.08995 6.79861 7.2163C6.53539 7.34264 6.31545 7.54406 6.16649 7.79519L3.20816 12.9131C3.04717 13.1803 2.97478 13.4916 3.00135 13.8024C3.02791 14.1132 3.15207 14.4077 3.35608 14.6437L5.23462 16.7737C5.47176 17.0437 5.60254 17.3907 5.60254 17.75C5.60254 18.1093 5.47176 18.4563 5.23462 18.7262L3.35608 20.8562C3.15207 21.0922 3.02791 21.3867 3.00135 21.6975C2.97478 22.0084 3.04717 22.3196 3.20816 22.5869L6.16649 27.7048C6.32195 27.9747 6.55865 28.1886 6.84284 28.3161C7.12704 28.4436 7.44423 28.4781 7.7492 28.4148L10.53 27.8527C10.8839 27.7796 11.2522 27.8385 11.5656 28.0184C11.879 28.1982 12.1157 28.4865 12.2311 28.8289L13.1334 31.5358C13.2363 31.842 13.4366 32.106 13.7037 32.2877C13.9708 32.4693 14.29 32.5585 14.6125 32.5416H20.5292C20.8393 32.5424 21.1418 32.4458 21.394 32.2653C21.6461 32.0848 21.8352 31.8296 21.9344 31.5358L22.8367 28.8289C22.9521 28.4865 23.1888 28.1982 23.5022 28.0184C23.8155 27.8385 24.1839 27.7796 24.5377 27.8527L27.3186 28.4148C27.6235 28.4781 27.9407 28.4436 28.2249 28.3161C28.5091 28.1886 28.7458 27.9747 28.9013 27.7048L31.8596 22.5869C32.0167 22.3166 32.0841 22.0036 32.0522 21.6927C32.0203 21.3818 31.8908 21.0889 31.6821 20.8562L29.6852 18.7262ZM27.4813 20.7083L28.6646 22.0396L26.7713 25.3233L25.0259 24.9683C23.9605 24.7505 22.8523 24.9315 21.9116 25.4769C20.9709 26.0222 20.2632 26.894 19.9227 27.9266L19.3607 29.5833H15.574L15.0415 27.8971C14.7011 26.8644 13.9933 25.9926 13.0526 25.4473C12.1119 24.9019 11.0037 24.721 9.93837 24.9387L8.19295 25.2937L6.27004 22.0248L7.45337 20.6935C8.18105 19.8799 8.58335 18.8267 8.58335 17.7352C8.58335 16.6437 8.18105 15.5904 7.45337 14.7769L6.27004 13.4456L8.16337 10.1914L9.90878 10.5464C10.9741 10.7642 12.0823 10.5832 13.023 10.0379C13.9637 9.49255 14.6715 8.6208 15.0119 7.5881L15.574 5.91664H19.3607L19.9227 7.60289C20.2632 8.63559 20.9709 9.50735 21.9116 10.0527C22.8523 10.598 23.9605 10.779 25.0259 10.5612L26.7713 10.2062L28.6646 13.49L27.4813 14.8212C26.7618 15.6329 26.3645 16.6801 26.3645 17.7648C26.3645 18.8495 26.7618 19.8966 27.4813 20.7083ZM17.4673 11.8333C16.2971 11.8333 15.1532 12.1803 14.1802 12.8304C13.2072 13.4806 12.4489 14.4046 12.001 15.4858C11.5532 16.5669 11.4361 17.7565 11.6643 18.9043C11.8926 20.052 12.4562 21.1062 13.2836 21.9337C14.1111 22.7612 15.1653 23.3247 16.313 23.553C17.4608 23.7813 18.6504 23.6641 19.7315 23.2163C20.8127 22.7684 21.7367 22.0101 22.3869 21.0371C23.037 20.0641 23.384 18.9202 23.384 17.75C23.384 16.1808 22.7606 14.6759 21.651 13.5663C20.5415 12.4567 19.0365 11.8333 17.4673 11.8333ZM17.4673 20.7083C16.8822 20.7083 16.3103 20.5348 15.8238 20.2097C15.3373 19.8847 14.9581 19.4226 14.7342 18.8821C14.5103 18.3415 14.4517 17.7467 14.5658 17.1728C14.68 16.599 14.9617 16.0719 15.3755 15.6581C15.7892 15.2444 16.3163 14.9626 16.8902 14.8485C17.464 14.7343 18.0589 14.7929 18.5994 15.0168C19.14 15.2407 19.602 15.6199 19.9271 16.1064C20.2522 16.5929 20.4257 17.1649 20.4257 17.75C20.4257 18.5346 20.114 19.287 19.5592 19.8418C19.0044 20.3966 18.2519 20.7083 17.4673 20.7083Z"/>
</mask>
<path d="M29.6852 18.7262C29.4481 18.4563 29.3173 18.1093 29.3173 17.75C29.3173 17.3907 29.4481 17.0437 29.6852 16.7737L31.5786 14.6437C31.7872 14.411 31.9168 14.1182 31.9487 13.8073C31.9805 13.4964 31.9131 13.1833 31.7561 12.9131L28.7977 7.79519C28.6423 7.52527 28.4056 7.31132 28.1214 7.18383C27.8372 7.05633 27.52 7.02182 27.215 7.08519L24.4342 7.64727C24.0804 7.72038 23.712 7.66145 23.3986 7.4816C23.0852 7.30175 22.8485 7.01342 22.7332 6.67102L21.8309 3.96414C21.7316 3.67035 21.5426 3.41517 21.2904 3.23468C21.0383 3.05419 20.7358 2.95751 20.4257 2.95831H14.509C14.1864 2.94147 13.8672 3.03068 13.6001 3.2123C13.333 3.39393 13.1327 3.65798 13.0298 3.96414L12.2015 6.67102C12.0861 7.01342 11.8494 7.30175 11.536 7.4816C11.2227 7.66145 10.8543 7.72038 10.5005 7.64727L7.64566 7.08519C7.35656 7.04433 7.06183 7.08995 6.79861 7.2163C6.53539 7.34264 6.31545 7.54406 6.16649 7.79519L3.20816 12.9131C3.04717 13.1803 2.97478 13.4916 3.00135 13.8024C3.02791 14.1132 3.15207 14.4077 3.35608 14.6437L5.23462 16.7737C5.47176 17.0437 5.60254 17.3907 5.60254 17.75C5.60254 18.1093 5.47176 18.4563 5.23462 18.7262L3.35608 20.8562C3.15207 21.0922 3.02791 21.3867 3.00135 21.6975C2.97478 22.0084 3.04717 22.3196 3.20816 22.5869L6.16649 27.7048C6.32195 27.9747 6.55865 28.1886 6.84284 28.3161C7.12704 28.4436 7.44423 28.4781 7.7492 28.4148L10.53 27.8527C10.8839 27.7796 11.2522 27.8385 11.5656 28.0184C11.879 28.1982 12.1157 28.4865 12.2311 28.8289L13.1334 31.5358C13.2363 31.842 13.4366 32.106 13.7037 32.2877C13.9708 32.4693 14.29 32.5585 14.6125 32.5416H20.5292C20.8393 32.5424 21.1418 32.4458 21.394 32.2653C21.6461 32.0848 21.8352 31.8296 21.9344 31.5358L22.8367 28.8289C22.9521 28.4865 23.1888 28.1982 23.5022 28.0184C23.8155 27.8385 24.1839 27.7796 24.5377 27.8527L27.3186 28.4148C27.6235 28.4781 27.9407 28.4436 28.2249 28.3161C28.5091 28.1886 28.7458 27.9747 28.9013 27.7048L31.8596 22.5869C32.0167 22.3166 32.0841 22.0036 32.0522 21.6927C32.0203 21.3818 31.8908 21.0889 31.6821 20.8562L29.6852 18.7262ZM27.4813 20.7083L28.6646 22.0396L26.7713 25.3233L25.0259 24.9683C23.9605 24.7505 22.8523 24.9315 21.9116 25.4769C20.9709 26.0222 20.2632 26.894 19.9227 27.9266L19.3607 29.5833H15.574L15.0415 27.8971C14.7011 26.8644 13.9933 25.9926 13.0526 25.4473C12.1119 24.9019 11.0037 24.721 9.93837 24.9387L8.19295 25.2937L6.27004 22.0248L7.45337 20.6935C8.18105 19.8799 8.58335 18.8267 8.58335 17.7352C8.58335 16.6437 8.18105 15.5904 7.45337 14.7769L6.27004 13.4456L8.16337 10.1914L9.90878 10.5464C10.9741 10.7642 12.0823 10.5832 13.023 10.0379C13.9637 9.49255 14.6715 8.6208 15.0119 7.5881L15.574 5.91664H19.3607L19.9227 7.60289C20.2632 8.63559 20.9709 9.50735 21.9116 10.0527C22.8523 10.598 23.9605 10.779 25.0259 10.5612L26.7713 10.2062L28.6646 13.49L27.4813 14.8212C26.7618 15.6329 26.3645 16.6801 26.3645 17.7648C26.3645 18.8495 26.7618 19.8966 27.4813 20.7083ZM17.4673 11.8333C16.2971 11.8333 15.1532 12.1803 14.1802 12.8304C13.2072 13.4806 12.4489 14.4046 12.001 15.4858C11.5532 16.5669 11.4361 17.7565 11.6643 18.9043C11.8926 20.052 12.4562 21.1062 13.2836 21.9337C14.1111 22.7612 15.1653 23.3247 16.313 23.553C17.4608 23.7813 18.6504 23.6641 19.7315 23.2163C20.8127 22.7684 21.7367 22.0101 22.3869 21.0371C23.037 20.0641 23.384 18.9202 23.384 17.75C23.384 16.1808 22.7606 14.6759 21.651 13.5663C20.5415 12.4567 19.0365 11.8333 17.4673 11.8333ZM17.4673 20.7083C16.8822 20.7083 16.3103 20.5348 15.8238 20.2097C15.3373 19.8847 14.9581 19.4226 14.7342 18.8821C14.5103 18.3415 14.4517 17.7467 14.5658 17.1728C14.68 16.599 14.9617 16.0719 15.3755 15.6581C15.7892 15.2444 16.3163 14.9626 16.8902 14.8485C17.464 14.7343 18.0589 14.7929 18.5994 15.0168C19.14 15.2407 19.602 15.6199 19.9271 16.1064C20.2522 16.5929 20.4257 17.1649 20.4257 17.75C20.4257 18.5346 20.114 19.287 19.5592 19.8418C19.0044 20.3966 18.2519 20.7083 17.4673 20.7083Z" stroke="#D1D5DB" stroke-width="2.95833" mask="url(#path-1-inside-1_681_3582)"/>
</svg>
