<svg width="34" height="35" viewBox="0 0 34 35" fill="none" xmlns="http://www.w3.org/2000/svg">
<path d="M3.88462 6.76953C3.25218 6.76953 2.64564 7.02076 2.19844 7.46796C1.75124 7.91516 1.5 8.52169 1.5 9.15413V30.6155C1.5 31.2479 1.75124 31.8545 2.19844 32.3017C2.64564 32.7489 3.25218 33.0001 3.88462 33.0001H30.1154C30.7478 33.0001 31.3544 32.7489 31.8016 32.3017C32.2488 31.8545 32.5 31.2479 32.5 30.6155V9.15413C32.5 8.52169 32.2488 7.91516 31.8016 7.46796C31.3544 7.02076 30.7478 6.76953 30.1154 6.76953H25.3462" stroke="#2E1619" stroke-width="2.21429" stroke-linecap="round" stroke-linejoin="round"/>
<path d="M8.65405 2V11.5384" stroke="#2E1619" stroke-width="2.21429" stroke-linecap="round" stroke-linejoin="round"/>
<path d="M25.3464 2V11.5384" stroke="#2E1619" stroke-width="2.21429" stroke-linecap="round" stroke-linejoin="round"/>
<path d="M8.65405 6.76953H20.5771" stroke="#2E1619" stroke-width="2.21429" stroke-linecap="round" stroke-linejoin="round"/>
<path d="M8.65373 19.885C9.31222 19.885 9.84603 19.3512 9.84603 18.6927C9.84603 18.0342 9.31222 17.5004 8.65373 17.5004C7.99524 17.5004 7.46143 18.0342 7.46143 18.6927C7.46143 19.3512 7.99524 19.885 8.65373 19.885Z" stroke="#2E1619" stroke-width="2.21429" stroke-linecap="round" stroke-linejoin="round"/>
<path d="M17.0004 19.885C17.6589 19.885 18.1927 19.3512 18.1927 18.6927C18.1927 18.0342 17.6589 17.5004 17.0004 17.5004C16.3419 17.5004 15.8081 18.0342 15.8081 18.6927C15.8081 19.3512 16.3419 19.885 17.0004 19.885Z" stroke="#2E1619" stroke-width="2.21429" stroke-linecap="round" stroke-linejoin="round"/>
<path d="M25.3459 19.885C26.0044 19.885 26.5382 19.3512 26.5382 18.6927C26.5382 18.0342 26.0044 17.5004 25.3459 17.5004C24.6874 17.5004 24.1536 18.0342 24.1536 18.6927C24.1536 19.3512 24.6874 19.885 25.3459 19.885Z" stroke="#2E1619" stroke-width="2.21429" stroke-linecap="round" stroke-linejoin="round"/>
<path d="M8.65373 27.0384C9.31222 27.0384 9.84603 26.5046 9.84603 25.8461C9.84603 25.1876 9.31222 24.6538 8.65373 24.6538C7.99524 24.6538 7.46143 25.1876 7.46143 25.8461C7.46143 26.5046 7.99524 27.0384 8.65373 27.0384Z" stroke="#2E1619" stroke-width="2.21429" stroke-linecap="round" stroke-linejoin="round"/>
</svg>
