<svg width="10" height="7" viewBox="0 0 10 7" fill="none" xmlns="http://www.w3.org/2000/svg">
<path d="M1.33669 6.69999H9.35685C9.43805 6.69974 9.51764 6.67734 9.58706 6.63522C9.65648 6.59309 9.7131 6.53283 9.75082 6.46092C9.78854 6.38901 9.80593 6.30818 9.80112 6.22712C9.79632 6.14606 9.7695 6.06785 9.72355 6.0009L5.71347 0.208562C5.54727 -0.0315974 5.14716 -0.0315974 4.98052 0.208562L0.970435 6.0009C0.924019 6.06771 0.896799 6.14596 0.891733 6.22716C0.886667 6.30835 0.90395 6.38938 0.941703 6.46144C0.979455 6.5335 1.03623 6.59384 1.10587 6.63589C1.17551 6.67795 1.25534 6.70012 1.33669 6.69999Z" fill="#2E1619"/>
</svg>
