<svg width="48" height="48" viewBox="0 0 48 48" fill="none" xmlns="http://www.w3.org/2000/svg">
<rect x="0.5" y="0.5" width="47" height="47" rx="23.5" fill="white"/>
<rect x="0.5" y="0.5" width="47" height="47" rx="23.5" stroke="#FFF4F4"/>
<path d="M40.0208 37.9792C30.5834 45.2458 17.42 45.1876 8.04712 37.838L14.9168 34.6178C15.2439 34.464 15.5579 34.2836 15.8556 34.0785C15.9459 34.0164 16.0363 33.9515 16.1224 33.8837C16.8701 33.3116 17.4855 32.585 17.9267 31.7533C18.2602 31.1143 18.4817 30.4229 18.5817 29.7091C18.6507 29.2459 18.6856 28.7783 18.6862 28.31C18.6862 27.5025 18.6424 26.695 18.6339 25.886C18.6283 25.438 18.6236 24.9905 18.6198 24.5435L18.9022 24.6846L19.6363 25.0644L19.9765 25.1223L23.9125 25.7915L28.3059 26.5397L28.4387 31.0573L28.4824 32.534L28.5036 33.2512V33.2978L30.2118 33.9924L40.0208 37.9792Z" fill="#DE8276"/>
<path d="M28.4754 33.0169C27.9901 33.1003 27.4909 33.023 27.0537 32.7966L18.6297 25.91C18.6198 25.591 18.6114 25.9256 18.6071 25.6065C18.6015 25.1585 18.5968 24.711 18.593 24.2639L18.8754 24.4051L19.6095 24.7849L19.9497 24.8427L23.8857 25.5119L28.2791 26.2602L28.4118 30.7778L28.4556 32.2545L28.4768 32.9717V33.0183L28.4754 33.0169Z" fill="#A76962"/>
<path d="M32.8233 20.7416C32.6038 20.9712 32.3632 21.1796 32.1047 21.3642C30.6365 22.4273 28.677 22.776 27.0026 23.3492C26.2967 23.5906 18.6422 25.7661 18.6422 26.239C18.6422 26.136 17.8925 25.392 16.948 24.4885C13.6905 21.3685 12.6045 16.608 14.1866 12.384C15.7269 8.33645 20.637 5.54681 24.7494 4.90163C26.7076 4.59528 29.0313 4.42445 30.8398 5.36328C31.7645 5.84469 32.5339 6.54634 33.2398 7.32422C33.46 7.56986 33.6737 7.82069 33.8807 8.07669C33.9697 8.18398 34.0572 8.29128 34.1433 8.39998C37.3579 12.4376 36.2186 17.1741 32.8233 20.7416Z" fill="url(#paint0_linear_364_9528)"/>
<path d="M32.8238 20.7417C32.6043 20.9712 32.3637 21.1797 32.1052 21.3642C32.0449 21.2592 31.9907 21.1508 31.9429 21.0395C31.5702 20.1925 31.3782 19.2734 31.237 18.3572C31.0171 17.0238 30.8668 15.6799 30.7866 14.3308C30.6582 12.1652 29.7335 11.0908 31.573 9.40236C32.235 8.79567 33.0233 8.34339 33.8812 8.07812C33.9702 8.18542 34.0577 8.29271 34.1438 8.40142C37.3584 12.4377 36.2191 17.1741 32.8238 20.7417Z" fill="url(#paint1_linear_364_9528)"/>
<ellipse cx="17.2306" cy="20.5934" rx="2.4" ry="2.4" fill="#E18477"/>
<ellipse cx="17.9929" cy="20.5933" rx="2.1487" ry="2.14871" fill="#A76962"/>
<path d="M18.1725 18.3177C18.2896 19.8509 18.2854 21.7229 18.3263 22.2707C18.4327 23.6438 18.5381 25.0165 18.6426 26.3888L28.0223 31.8678C29.3686 32.371 30.8768 31.7691 31.5066 30.4772C32.8562 27.713 35.0219 23.3478 34.7367 21.7243C34.3132 19.3243 33.1837 18.4772 33.1837 18.4772L33.6539 15.6622C34.1296 12.8005 33.1485 10.0914 29.8054 9.77795C29.0995 9.71301 28.3132 9.84713 27.8939 10.4104C26.7645 11.9295 27.4153 13.7987 25.7198 15.2104C23.6614 16.9088 19.0689 17.6499 17.9932 16.2791C17.9932 16.2791 18.092 17.249 18.1725 18.3177Z" fill="#DE8276"/>
<path d="M25.2114 24.3064C25.8898 25.0639 26.8196 25.5499 27.8288 25.6744" stroke="#00214E" stroke-width="0.884354"/>
<path d="M28.5458 17.6414C28.5345 17.6908 30.4319 22.7421 30.4319 22.7421L27.8992 22.8649" stroke="#00214E" stroke-width="0.884354"/>
<path d="M22.5491 16.6616C23.856 16.3913 25.2002 16.353 26.5204 16.5486" stroke="#00214E" stroke-width="0.884354"/>
<path d="M30.8855 16.6799C31.6923 16.4919 32.524 16.4342 33.349 16.509" stroke="#00214E" stroke-width="0.884354"/>
<path d="M40.0208 37.9793C30.5834 45.2459 17.42 45.1878 8.04712 37.8382L14.9168 34.6179C15.2439 34.4641 15.5579 34.2838 15.8556 34.0786C15.9459 34.0165 16.0363 33.9516 16.1224 33.8838C16.8701 33.3118 17.4855 32.5851 17.9267 31.7535C18.2602 31.1145 18.4817 30.4231 18.5817 29.7092C18.6814 29.8058 18.786 29.8973 18.8951 29.9831C19.7607 30.6232 20.7002 31.1569 21.6932 31.5728C22.1754 31.7739 22.6684 31.9478 23.1699 32.0937C24.6811 32.5343 26.2589 32.7012 27.8288 32.5864C28.0462 32.5695 28.265 32.5483 28.4824 32.5328L28.5036 33.2499V33.2965L30.2118 33.9911L40.0208 37.9793Z" fill="#00214E"/>
<path d="M24.4731 18.2485C25.3343 18.2485 25.3343 19.5728 24.4731 19.5798H24.4336C23.571 19.5798 23.571 18.2556 24.4336 18.2485H24.4717H24.4731Z" fill="#00214E"/>
<path d="M31.5501 18.0522C32.3491 18.0593 32.3491 19.2805 31.5501 19.2875H31.5134C30.7143 19.2875 30.7143 18.0593 31.5134 18.0522H31.5501Z" fill="#00214E"/>
<defs>
<linearGradient id="paint0_linear_364_9528" x1="13.461" y1="26.2445" x2="36.0464" y2="26.2445" gradientUnits="userSpaceOnUse">
<stop stop-color="#16243F"/>
<stop offset="1" stop-color="#6878B1"/>
</linearGradient>
<linearGradient id="paint1_linear_364_9528" x1="26.7631" y1="16.8121" x2="36.2328" y2="19.4987" gradientUnits="userSpaceOnUse">
<stop stop-color="#16243F"/>
<stop offset="1" stop-color="#6878B1"/>
</linearGradient>
</defs>
</svg>
