<svg width="89" height="36" viewBox="0 0 89 36" fill="none" xmlns="http://www.w3.org/2000/svg">
<g filter="url(#filter0_d_364_3843)">
<rect x="2" y="1" width="85" height="32" rx="5" fill="url(#paint0_linear_364_3843)"/>
<path fill-rule="evenodd" clip-rule="evenodd" d="M19.7536 20.5C19.5926 20.5 19.4386 20.4335 19.3283 20.3163L16.4916 17.2952C16.2705 17.0607 16.2827 16.6915 16.5172 16.471C16.7523 16.2505 17.1216 16.2621 17.3415 16.4966L19.7477 19.058L24.6524 13.6902C24.8706 13.4516 25.2392 13.4359 25.4772 13.6529C25.7146 13.8699 25.731 14.2391 25.514 14.4765L20.1841 20.3099C20.075 20.43 19.9198 20.4989 19.7576 20.5H19.7536Z" fill="#FBFBFB"/>
<path d="M42.228 12.27C43.264 12.27 44.1693 12.4707 44.944 12.872C45.728 13.264 46.33 13.8333 46.75 14.58C47.1793 15.3173 47.394 16.1807 47.394 17.17C47.394 18.1593 47.1793 19.018 46.75 19.746C46.33 20.474 45.728 21.034 44.944 21.426C44.1693 21.8087 43.264 22 42.228 22H39.05V12.27H42.228ZM42.228 20.698C43.3667 20.698 44.2393 20.39 44.846 19.774C45.4527 19.158 45.756 18.29 45.756 17.17C45.756 16.0407 45.4527 15.1587 44.846 14.524C44.2393 13.8893 43.3667 13.572 42.228 13.572H40.646V20.698H42.228ZM52.3218 22.126C51.5938 22.126 50.9358 21.9627 50.3478 21.636C49.7598 21.3 49.2978 20.8333 48.9618 20.236C48.6258 19.6293 48.4578 18.9293 48.4578 18.136C48.4578 17.352 48.6304 16.6567 48.9758 16.05C49.3211 15.4433 49.7924 14.9767 50.3898 14.65C50.9871 14.3233 51.6544 14.16 52.3918 14.16C53.1291 14.16 53.7964 14.3233 54.3938 14.65C54.9911 14.9767 55.4624 15.4433 55.8078 16.05C56.1531 16.6567 56.3258 17.352 56.3258 18.136C56.3258 18.92 56.1484 19.6153 55.7938 20.222C55.4391 20.8287 54.9538 21.3 54.3378 21.636C53.7311 21.9627 53.0591 22.126 52.3218 22.126ZM52.3218 20.74C52.7324 20.74 53.1151 20.642 53.4698 20.446C53.8338 20.25 54.1278 19.956 54.3518 19.564C54.5758 19.172 54.6878 18.696 54.6878 18.136C54.6878 17.576 54.5804 17.1047 54.3658 16.722C54.1511 16.33 53.8664 16.036 53.5118 15.84C53.1571 15.644 52.7744 15.546 52.3638 15.546C51.9531 15.546 51.5704 15.644 51.2158 15.84C50.8704 16.036 50.5951 16.33 50.3898 16.722C50.1844 17.1047 50.0818 17.576 50.0818 18.136C50.0818 18.9667 50.2918 19.6107 50.7118 20.068C51.1411 20.516 51.6778 20.74 52.3218 20.74ZM61.7955 14.16C62.4022 14.16 62.9435 14.286 63.4195 14.538C63.9048 14.79 64.2828 15.1633 64.5535 15.658C64.8242 16.1527 64.9595 16.75 64.9595 17.45V22H63.3775V17.688C63.3775 16.9973 63.2048 16.47 62.8595 16.106C62.5142 15.7327 62.0428 15.546 61.4455 15.546C60.8482 15.546 60.3722 15.7327 60.0175 16.106C59.6722 16.47 59.4995 16.9973 59.4995 17.688V22H57.9035V14.286H59.4995V15.168C59.7608 14.8507 60.0922 14.6033 60.4935 14.426C60.9042 14.2487 61.3382 14.16 61.7955 14.16ZM74.0653 17.954C74.0653 18.2433 74.0466 18.5047 74.0093 18.738H68.1153C68.162 19.354 68.3906 19.8487 68.8013 20.222C69.212 20.5953 69.716 20.782 70.3133 20.782C71.172 20.782 71.7786 20.4227 72.1333 19.704H73.8553C73.622 20.4133 73.1973 20.9967 72.5813 21.454C71.9746 21.902 71.2186 22.126 70.3133 22.126C69.576 22.126 68.9133 21.9627 68.3253 21.636C67.7466 21.3 67.2893 20.8333 66.9533 20.236C66.6266 19.6293 66.4633 18.9293 66.4633 18.136C66.4633 17.3427 66.622 16.6473 66.9393 16.05C67.266 15.4433 67.7186 14.9767 68.2973 14.65C68.8853 14.3233 69.5573 14.16 70.3133 14.16C71.0413 14.16 71.69 14.3187 72.2593 14.636C72.8286 14.9533 73.272 15.4013 73.5893 15.98C73.9066 16.5493 74.0653 17.2073 74.0653 17.954ZM72.3993 17.45C72.39 16.862 72.18 16.3907 71.7693 16.036C71.3586 15.6813 70.85 15.504 70.2433 15.504C69.6926 15.504 69.2213 15.6813 68.8293 16.036C68.4373 16.3813 68.204 16.8527 68.1293 17.45H72.3993Z" fill="#FBFBFB"/>
</g>
<defs>
<filter id="filter0_d_364_3843" x="0" y="0" width="89" height="36" filterUnits="userSpaceOnUse" color-interpolation-filters="sRGB">
<feFlood flood-opacity="0" result="BackgroundImageFix"/>
<feColorMatrix in="SourceAlpha" type="matrix" values="0 0 0 0 0 0 0 0 0 0 0 0 0 0 0 0 0 0 127 0" result="hardAlpha"/>
<feOffset dy="1"/>
<feGaussianBlur stdDeviation="1"/>
<feComposite in2="hardAlpha" operator="out"/>
<feColorMatrix type="matrix" values="0 0 0 0 0 0 0 0 0 0 0 0 0 0 0 0 0 0 0.25 0"/>
<feBlend mode="normal" in2="BackgroundImageFix" result="effect1_dropShadow_364_3843"/>
<feBlend mode="normal" in="SourceGraphic" in2="effect1_dropShadow_364_3843" result="shape"/>
</filter>
<linearGradient id="paint0_linear_364_3843" x1="15.5099" y1="-37.9091" x2="107.93" y2="10.9891" gradientUnits="userSpaceOnUse">
<stop offset="0.00315941" stop-color="#FF7594"/>
<stop offset="0.942708" stop-color="#FF7C65"/>
</linearGradient>
</defs>
</svg>
