<svg width="41" height="40" viewBox="0 0 41 40" fill="none" xmlns="http://www.w3.org/2000/svg">
<rect width="41" height="40" rx="5" fill="#FF2D2D" fill-opacity="0.6"/>
<path d="M14.1694 21.6267C14.7593 18.2684 18.5233 13.4118 20.3315 11.4033C22.3705 13.2897 23.7941 16.105 24.251 17.2768L20.4958 19.3462L20.451 24.4844L24.6305 27.3238C23.8438 28.2512 21.71 30.1012 19.4678 30.0816C16.6652 30.0571 13.4321 25.8246 14.1694 21.6267Z" fill="white"/>
<path d="M24.9438 18.2172L21.4241 20.0551L21.3915 23.792L24.8765 25.9245L28.1605 24.3182L27.9616 20.3457L24.9438 18.2172Z" fill="white"/>
<path d="M28.1954 20.2989L24.9908 18.1531L21.3357 19.9272M28.1954 20.2989L24.8399 21.8227M28.1954 20.2989L28.1597 24.3931L24.8017 26.1993M24.8399 21.8227L21.3357 19.9272M24.8399 21.8227L24.8017 26.1993M21.3357 19.9272L21.301 23.9097L24.8017 26.1993M16.1936 24.7411C16.2881 25.9607 17.1399 28.4057 19.7906 28.4288M14.1563 23.1337C14.1946 18.744 18.6636 12.9107 20.3629 11.0532C21.2721 12.0756 22.9365 14.4655 24.2107 17.1154L20.5253 19.2452L20.3528 24.4779L24.6317 27.1861C24.6317 27.1861 22.003 29.9399 20.1978 29.9691C15.9637 30.0375 14.1295 26.2068 14.1563 23.1337Z" stroke="#EDEBEB" stroke-width="0.700692" stroke-linecap="round"/>
</svg>
