<svg width="36" height="35" viewBox="0 0 36 35" fill="none" xmlns="http://www.w3.org/2000/svg">
<path d="M18.0001 2.91663C14.2615 2.92729 10.6698 4.37338 7.96675 6.95621V4.37496C7.96675 3.98819 7.8131 3.61725 7.53961 3.34376C7.26612 3.07027 6.89519 2.91663 6.50841 2.91663C6.12164 2.91663 5.75071 3.07027 5.47722 3.34376C5.20373 3.61725 5.05008 3.98819 5.05008 4.37496V10.9375C5.05008 11.3242 5.20373 11.6952 5.47722 11.9687C5.75071 12.2421 6.12164 12.3958 6.50841 12.3958H13.0709C13.4577 12.3958 13.8286 12.2421 14.1021 11.9687C14.3756 11.6952 14.5292 11.3242 14.5292 10.9375C14.5292 10.5507 14.3756 10.1798 14.1021 9.90626C13.8286 9.63277 13.4577 9.47913 13.0709 9.47913H9.57091C11.446 7.51965 13.9452 6.27466 16.6388 5.95823C19.3324 5.64179 22.052 6.27367 24.3302 7.74523C26.6084 9.21679 28.3027 11.4361 29.1218 14.0215C29.9409 16.607 29.8337 19.397 28.8186 21.912C27.8035 24.427 25.9439 26.5097 23.5595 27.8021C21.1751 29.0945 18.415 29.5158 15.7536 28.9936C13.0922 28.4714 10.696 27.0383 8.97678 24.9407C7.25758 22.8431 6.3229 20.212 6.33341 17.5C6.33341 17.1132 6.17977 16.7423 5.90628 16.4688C5.63279 16.1953 5.26186 16.0416 4.87508 16.0416C4.48831 16.0416 4.11737 16.1953 3.84388 16.4688C3.57039 16.7423 3.41675 17.1132 3.41675 17.5C3.41675 20.3843 4.27205 23.2038 5.87448 25.602C7.47692 28.0002 9.75453 29.8694 12.4193 30.9732C15.084 32.077 18.0163 32.3658 20.8451 31.8031C23.674 31.2404 26.2725 29.8514 28.3121 27.8119C30.3516 25.7724 31.7405 23.1739 32.3032 20.345C32.8659 17.5161 32.5771 14.5839 31.4733 11.9192C30.3695 9.2544 28.5004 6.9768 26.1021 5.37436C23.7039 3.77192 20.8844 2.91663 18.0001 2.91663ZM18.0001 11.6666C17.6133 11.6666 17.2424 11.8203 16.9689 12.0938C16.6954 12.3673 16.5417 12.7382 16.5417 13.125V17.5C16.5417 17.8867 16.6954 18.2577 16.9689 18.5312C17.2424 18.8046 17.6133 18.9583 18.0001 18.9583H20.9167C21.3035 18.9583 21.6745 18.8046 21.9479 18.5312C22.2214 18.2577 22.3751 17.8867 22.3751 17.5C22.3751 17.1132 22.2214 16.7423 21.9479 16.4688C21.6745 16.1953 21.3035 16.0416 20.9167 16.0416H19.4584V13.125C19.4584 12.7382 19.3048 12.3673 19.0313 12.0938C18.7578 11.8203 18.3869 11.6666 18.0001 11.6666Z" fill="#2E1619"/>
</svg>
