<svg width="36" height="36" viewBox="0 0 36 36" fill="none" xmlns="http://www.w3.org/2000/svg">
<path d="M29.9999 12L20.9999 4.11001C20.1749 3.37208 19.1068 2.96411 17.9999 2.96411C16.893 2.96411 15.8249 3.37208 14.9999 4.11001L5.9999 12C5.52345 12.4261 5.14325 12.9488 4.88461 13.5334C4.62596 14.1179 4.49482 14.7508 4.4999 15.39V28.5C4.4999 29.6935 4.974 30.8381 5.81792 31.682C6.66183 32.5259 7.80642 33 8.9999 33H26.9999C28.1934 33 29.338 32.5259 30.1819 31.682C31.0258 30.8381 31.4999 29.6935 31.4999 28.5V15.375C31.5028 14.7384 31.3707 14.1083 31.1121 13.5265C30.8535 12.9447 30.4744 12.4244 29.9999 12ZM20.9999 30H14.9999V22.5C14.9999 22.1022 15.1579 21.7207 15.4392 21.4394C15.7205 21.158 16.1021 21 16.4999 21H19.4999C19.8977 21 20.2793 21.158 20.5606 21.4394C20.8419 21.7207 20.9999 22.1022 20.9999 22.5V30ZM28.4999 28.5C28.4999 28.8978 28.3419 29.2794 28.0606 29.5607C27.7793 29.842 27.3977 30 26.9999 30H23.9999V22.5C23.9999 21.3065 23.5258 20.1619 22.6819 19.318C21.838 18.4741 20.6934 18 19.4999 18H16.4999C15.3064 18 14.1618 18.4741 13.3179 19.318C12.474 20.1619 11.9999 21.3065 11.9999 22.5V30H8.9999C8.60207 30 8.22054 29.842 7.93924 29.5607C7.65793 29.2794 7.4999 28.8978 7.4999 28.5V15.375C7.50017 15.162 7.54579 14.9516 7.63372 14.7576C7.72166 14.5636 7.8499 14.3906 8.0099 14.25L17.0099 6.37501C17.2836 6.13453 17.6355 6.00191 17.9999 6.00191C18.3643 6.00191 18.7162 6.13453 18.9899 6.37501L27.9899 14.25C28.1499 14.3906 28.2781 14.5636 28.3661 14.7576C28.454 14.9516 28.4996 15.162 28.4999 15.375V28.5Z" fill="#FF7594"/>
</svg>
