<svg width="156" height="48" viewBox="0 0 156 48" fill="none" xmlns="http://www.w3.org/2000/svg">
<g filter="url(#filter0_d_1_1560)">
<rect x="2.5" y="1" width="151" height="44" rx="5" fill="url(#paint0_linear_1_1560)"/>
<path d="M23.544 28H21.948L17.146 20.734V28H15.55V18.256H17.146L21.948 25.508V18.256H23.544V28ZM32.7098 23.954C32.7098 24.2433 32.6912 24.5047 32.6538 24.738H26.7598C26.8065 25.354 27.0352 25.8487 27.4458 26.222C27.8565 26.5953 28.3605 26.782 28.9578 26.782C29.8165 26.782 30.4232 26.4227 30.7778 25.704H32.4998C32.2665 26.4133 31.8418 26.9967 31.2258 27.454C30.6192 27.902 29.8632 28.126 28.9578 28.126C28.2205 28.126 27.5578 27.9627 26.9698 27.636C26.3912 27.3 25.9338 26.8333 25.5978 26.236C25.2712 25.6293 25.1078 24.9293 25.1078 24.136C25.1078 23.3427 25.2665 22.6473 25.5838 22.05C25.9105 21.4433 26.3632 20.9767 26.9418 20.65C27.5298 20.3233 28.2018 20.16 28.9578 20.16C29.6858 20.16 30.3345 20.3187 30.9038 20.636C31.4732 20.9533 31.9165 21.4013 32.2338 21.98C32.5512 22.5493 32.7098 23.2073 32.7098 23.954ZM31.0438 23.45C31.0345 22.862 30.8245 22.3907 30.4138 22.036C30.0032 21.6813 29.4945 21.504 28.8878 21.504C28.3372 21.504 27.8658 21.6813 27.4738 22.036C27.0818 22.3813 26.8485 22.8527 26.7738 23.45H31.0438ZM44.6405 20.286L42.2465 28H40.5665L39.0125 22.302L37.4585 28H35.7785L33.3705 20.286H34.9945L36.6045 26.488L38.2425 20.286H39.9085L41.4765 26.46L43.0725 20.286H44.6405ZM48.9379 24.108C48.9379 23.3333 49.0966 22.6473 49.4139 22.05C49.7406 21.4527 50.1793 20.9907 50.7299 20.664C51.2899 20.328 51.9059 20.16 52.5779 20.16C53.1846 20.16 53.7119 20.2813 54.1599 20.524C54.6173 20.7573 54.9813 21.0513 55.2519 21.406V20.286H56.8619V28H55.2519V26.852C54.9813 27.216 54.6126 27.5193 54.1459 27.762C53.6793 28.0047 53.1473 28.126 52.5499 28.126C51.8873 28.126 51.2806 27.958 50.7299 27.622C50.1793 27.2767 49.7406 26.8007 49.4139 26.194C49.0966 25.578 48.9379 24.8827 48.9379 24.108ZM55.2519 24.136C55.2519 23.604 55.1399 23.142 54.9159 22.75C54.7013 22.358 54.4166 22.0593 54.0619 21.854C53.7073 21.6487 53.3246 21.546 52.9139 21.546C52.5033 21.546 52.1206 21.6487 51.7659 21.854C51.4113 22.05 51.1219 22.344 50.8979 22.736C50.6833 23.1187 50.5759 23.576 50.5759 24.108C50.5759 24.64 50.6833 25.1067 50.8979 25.508C51.1219 25.9093 51.4113 26.2173 51.7659 26.432C52.1299 26.6373 52.5126 26.74 52.9139 26.74C53.3246 26.74 53.7073 26.6373 54.0619 26.432C54.4166 26.2267 54.7013 25.928 54.9159 25.536C55.1399 25.1347 55.2519 24.668 55.2519 24.136ZM60.5542 21.42C60.8249 21.0653 61.1935 20.7667 61.6602 20.524C62.1269 20.2813 62.6542 20.16 63.2422 20.16C63.9142 20.16 64.5255 20.328 65.0762 20.664C65.6362 20.9907 66.0749 21.4527 66.3922 22.05C66.7095 22.6473 66.8682 23.3333 66.8682 24.108C66.8682 24.8827 66.7095 25.578 66.3922 26.194C66.0749 26.8007 65.6362 27.2767 65.0762 27.622C64.5255 27.958 63.9142 28.126 63.2422 28.126C62.6542 28.126 62.1315 28.0093 61.6742 27.776C61.2169 27.5333 60.8435 27.2347 60.5542 26.88V31.668H58.9582V20.286H60.5542V21.42ZM65.2442 24.108C65.2442 23.576 65.1322 23.1187 64.9082 22.736C64.6935 22.344 64.4042 22.05 64.0402 21.854C63.6855 21.6487 63.3029 21.546 62.8922 21.546C62.4909 21.546 62.1082 21.6487 61.7442 21.854C61.3895 22.0593 61.1002 22.358 60.8762 22.75C60.6615 23.142 60.5542 23.604 60.5542 24.136C60.5542 24.668 60.6615 25.1347 60.8762 25.536C61.1002 25.928 61.3895 26.2267 61.7442 26.432C62.1082 26.6373 62.4909 26.74 62.8922 26.74C63.3029 26.74 63.6855 26.6373 64.0402 26.432C64.4042 26.2173 64.6935 25.9093 64.9082 25.508C65.1322 25.1067 65.2442 24.64 65.2442 24.108ZM70.0425 21.42C70.3132 21.0653 70.6818 20.7667 71.1485 20.524C71.6152 20.2813 72.1425 20.16 72.7305 20.16C73.4025 20.16 74.0138 20.328 74.5645 20.664C75.1245 20.9907 75.5632 21.4527 75.8805 22.05C76.1978 22.6473 76.3565 23.3333 76.3565 24.108C76.3565 24.8827 76.1978 25.578 75.8805 26.194C75.5632 26.8007 75.1245 27.2767 74.5645 27.622C74.0138 27.958 73.4025 28.126 72.7305 28.126C72.1425 28.126 71.6198 28.0093 71.1625 27.776C70.7052 27.5333 70.3318 27.2347 70.0425 26.88V31.668H68.4465V20.286H70.0425V21.42ZM74.7325 24.108C74.7325 23.576 74.6205 23.1187 74.3965 22.736C74.1818 22.344 73.8925 22.05 73.5285 21.854C73.1738 21.6487 72.7912 21.546 72.3805 21.546C71.9792 21.546 71.5965 21.6487 71.2325 21.854C70.8778 22.0593 70.5885 22.358 70.3645 22.75C70.1498 23.142 70.0425 23.604 70.0425 24.136C70.0425 24.668 70.1498 25.1347 70.3645 25.536C70.5885 25.928 70.8778 26.2267 71.2325 26.432C71.5965 26.6373 71.9792 26.74 72.3805 26.74C72.7912 26.74 73.1738 26.6373 73.5285 26.432C73.8925 26.2173 74.1818 25.9093 74.3965 25.508C74.6205 25.1067 74.7325 24.64 74.7325 24.108ZM81.2808 28.126C80.5528 28.126 79.8948 27.9627 79.3068 27.636C78.7188 27.3 78.2568 26.8333 77.9208 26.236C77.5848 25.6293 77.4168 24.9293 77.4168 24.136C77.4168 23.352 77.5894 22.6567 77.9348 22.05C78.2801 21.4433 78.7514 20.9767 79.3488 20.65C79.9461 20.3233 80.6134 20.16 81.3508 20.16C82.0881 20.16 82.7554 20.3233 83.3528 20.65C83.9501 20.9767 84.4214 21.4433 84.7668 22.05C85.1121 22.6567 85.2848 23.352 85.2848 24.136C85.2848 24.92 85.1074 25.6153 84.7528 26.222C84.3981 26.8287 83.9128 27.3 83.2968 27.636C82.6901 27.9627 82.0181 28.126 81.2808 28.126ZM81.2808 26.74C81.6914 26.74 82.0741 26.642 82.4288 26.446C82.7928 26.25 83.0868 25.956 83.3108 25.564C83.5348 25.172 83.6468 24.696 83.6468 24.136C83.6468 23.576 83.5394 23.1047 83.3248 22.722C83.1101 22.33 82.8254 22.036 82.4708 21.84C82.1161 21.644 81.7334 21.546 81.3228 21.546C80.9121 21.546 80.5294 21.644 80.1748 21.84C79.8294 22.036 79.5541 22.33 79.3488 22.722C79.1434 23.1047 79.0408 23.576 79.0408 24.136C79.0408 24.9667 79.2508 25.6107 79.6708 26.068C80.1001 26.516 80.6368 26.74 81.2808 26.74ZM87.6745 19.264C87.3852 19.264 87.1425 19.166 86.9465 18.97C86.7505 18.774 86.6525 18.5313 86.6525 18.242C86.6525 17.9527 86.7505 17.71 86.9465 17.514C87.1425 17.318 87.3852 17.22 87.6745 17.22C87.9545 17.22 88.1925 17.318 88.3885 17.514C88.5845 17.71 88.6825 17.9527 88.6825 18.242C88.6825 18.5313 88.5845 18.774 88.3885 18.97C88.1925 19.166 87.9545 19.264 87.6745 19.264ZM88.4585 20.286V28H86.8625V20.286H88.4585ZM94.4459 20.16C95.0526 20.16 95.5939 20.286 96.0699 20.538C96.5552 20.79 96.9332 21.1633 97.2039 21.658C97.4746 22.1527 97.6099 22.75 97.6099 23.45V28H96.0279V23.688C96.0279 22.9973 95.8552 22.47 95.5099 22.106C95.1646 21.7327 94.6932 21.546 94.0959 21.546C93.4986 21.546 93.0226 21.7327 92.6679 22.106C92.3226 22.47 92.1499 22.9973 92.1499 23.688V28H90.5539V20.286H92.1499V21.168C92.4112 20.8507 92.7426 20.6033 93.1439 20.426C93.5546 20.2487 93.9886 20.16 94.4459 20.16ZM101.508 21.588V25.858C101.508 26.1473 101.573 26.3573 101.704 26.488C101.844 26.6093 102.077 26.67 102.404 26.67H103.384V28H102.124C101.405 28 100.854 27.832 100.472 27.496C100.089 27.16 99.8977 26.614 99.8977 25.858V21.588H98.9877V20.286H99.8977V18.368H101.508V20.286H103.384V21.588H101.508ZM114.193 20.16C114.799 20.16 115.341 20.286 115.817 20.538C116.302 20.79 116.68 21.1633 116.951 21.658C117.231 22.1527 117.371 22.75 117.371 23.45V28H115.789V23.688C115.789 22.9973 115.616 22.47 115.271 22.106C114.925 21.7327 114.454 21.546 113.857 21.546C113.259 21.546 112.783 21.7327 112.429 22.106C112.083 22.47 111.911 22.9973 111.911 23.688V28H110.329V23.688C110.329 22.9973 110.156 22.47 109.811 22.106C109.465 21.7327 108.994 21.546 108.397 21.546C107.799 21.546 107.323 21.7327 106.969 22.106C106.623 22.47 106.451 22.9973 106.451 23.688V28H104.855V20.286H106.451V21.168C106.712 20.8507 107.043 20.6033 107.445 20.426C107.846 20.2487 108.275 20.16 108.733 20.16C109.349 20.16 109.899 20.2907 110.385 20.552C110.87 20.8133 111.243 21.1913 111.505 21.686C111.738 21.2193 112.102 20.8507 112.597 20.58C113.091 20.3 113.623 20.16 114.193 20.16ZM126.472 23.954C126.472 24.2433 126.453 24.5047 126.416 24.738H120.522C120.568 25.354 120.797 25.8487 121.208 26.222C121.618 26.5953 122.122 26.782 122.72 26.782C123.578 26.782 124.185 26.4227 124.54 25.704H126.262C126.028 26.4133 125.604 26.9967 124.988 27.454C124.381 27.902 123.625 28.126 122.72 28.126C121.982 28.126 121.32 27.9627 120.732 27.636C120.153 27.3 119.696 26.8333 119.36 26.236C119.033 25.6293 118.87 24.9293 118.87 24.136C118.87 23.3427 119.028 22.6473 119.346 22.05C119.672 21.4433 120.125 20.9767 120.704 20.65C121.292 20.3233 121.964 20.16 122.72 20.16C123.448 20.16 124.096 20.3187 124.666 20.636C125.235 20.9533 125.678 21.4013 125.996 21.98C126.313 22.5493 126.472 23.2073 126.472 23.954ZM124.806 23.45C124.796 22.862 124.586 22.3907 124.176 22.036C123.765 21.6813 123.256 21.504 122.65 21.504C122.099 21.504 121.628 21.6813 121.236 22.036C120.844 22.3813 120.61 22.8527 120.536 23.45H124.806ZM131.934 20.16C132.541 20.16 133.082 20.286 133.558 20.538C134.044 20.79 134.422 21.1633 134.692 21.658C134.963 22.1527 135.098 22.75 135.098 23.45V28H133.516V23.688C133.516 22.9973 133.344 22.47 132.998 22.106C132.653 21.7327 132.182 21.546 131.584 21.546C130.987 21.546 130.511 21.7327 130.156 22.106C129.811 22.47 129.638 22.9973 129.638 23.688V28H128.042V20.286H129.638V21.168C129.9 20.8507 130.231 20.6033 130.632 20.426C131.043 20.2487 131.477 20.16 131.934 20.16ZM138.996 21.588V25.858C138.996 26.1473 139.061 26.3573 139.192 26.488C139.332 26.6093 139.565 26.67 139.892 26.67H140.872V28H139.612C138.893 28 138.343 27.832 137.96 27.496C137.577 27.16 137.386 26.614 137.386 25.858V21.588H136.476V20.286H137.386V18.368H138.996V20.286H140.872V21.588H138.996Z" fill="white"/>
</g>
<defs>
<filter id="filter0_d_1_1560" x="0.5" y="0" width="155" height="48" filterUnits="userSpaceOnUse" color-interpolation-filters="sRGB">
<feFlood flood-opacity="0" result="BackgroundImageFix"/>
<feColorMatrix in="SourceAlpha" type="matrix" values="0 0 0 0 0 0 0 0 0 0 0 0 0 0 0 0 0 0 127 0" result="hardAlpha"/>
<feOffset dy="1"/>
<feGaussianBlur stdDeviation="1"/>
<feComposite in2="hardAlpha" operator="out"/>
<feColorMatrix type="matrix" values="0 0 0 0 0 0 0 0 0 0 0 0 0 0 0 0 0 0 0.25 0"/>
<feBlend mode="normal" in2="BackgroundImageFix" result="effect1_dropShadow_1_1560"/>
<feBlend mode="normal" in="SourceGraphic" in2="effect1_dropShadow_1_1560" result="shape"/>
</filter>
<linearGradient id="paint0_linear_1_1560" x1="26.5" y1="-52.5" x2="169.72" y2="45.4005" gradientUnits="userSpaceOnUse">
<stop offset="0.00315941" stop-color="#FF7594"/>
<stop offset="0.942708" stop-color="#FF7C65"/>
</linearGradient>
</defs>
</svg>
