<svg width="41" height="40" viewBox="0 0 41 40" fill="none" xmlns="http://www.w3.org/2000/svg">
<rect width="41" height="40" rx="5" fill="#FF2D2D" fill-opacity="0.6"/>
<path d="M21.8643 23.5754C22.0298 23.2852 22.2763 23.0461 22.5755 22.8856" stroke="white" stroke-width="1.66669" stroke-linecap="round" stroke-linejoin="round"/>
<path d="M24.7554 16.4533C24.8346 16.3146 24.9525 16.2002 25.0955 16.1234" stroke="white" stroke-width="1.25002" stroke-linecap="round" stroke-linejoin="round"/>
<path d="M14.3811 15.083C14.646 14.6187 15.0404 14.2361 15.5192 13.9792" stroke="white" stroke-width="1.66669" stroke-linecap="round" stroke-linejoin="round"/>
<path d="M16.5919 20.9064C19.128 20.9064 21.1838 18.9127 21.1838 16.4532C21.1838 13.9937 19.128 12 16.5919 12C14.0558 12 12 13.9937 12 16.4532C12 18.9127 14.0558 20.9064 16.5919 20.9064ZM25.7074 19.8178C26.4194 19.8178 27.1023 19.5435 27.6058 19.0552C28.1093 18.5669 28.3921 17.9047 28.3921 17.2142C28.3921 16.5237 28.1093 15.8614 27.6058 15.3731C27.1023 14.8849 26.4194 14.6106 25.7074 14.6106C24.9953 14.6106 24.3125 14.8849 23.809 15.3731C23.3055 15.8614 23.0226 16.5237 23.0226 17.2142C23.0226 17.9047 23.3055 18.5669 23.809 19.0552C24.3125 19.5435 24.9953 19.8178 25.7074 19.8178ZM23.2247 27.8335C25.1033 27.8335 26.6261 26.3567 26.6261 24.5349C26.6261 22.713 25.1033 21.2362 23.2247 21.2362C21.3461 21.2362 19.8233 22.713 19.8233 24.5349C19.8233 26.3567 21.3461 27.8335 23.2247 27.8335Z" fill="white"/>
<path d="M19.1431 16.4531C19.1431 17.0218 18.9101 17.5671 18.4955 17.9693C18.0809 18.3714 17.5185 18.5973 16.9321 18.5973" stroke="#EDEBEB" stroke-width="4.16672" stroke-linecap="round" stroke-linejoin="round"/>
<path d="M25.2657 24.5349C25.2657 24.9723 25.0865 25.3919 24.7675 25.7012C24.4486 26.0105 24.016 26.1842 23.5649 26.1842" stroke="#EDEBEB" stroke-width="2.50003" stroke-linecap="round" stroke-linejoin="round"/>
<path d="M27.1364 17.4427C27.1364 17.7052 27.0289 17.9569 26.8375 18.1425C26.6461 18.3281 26.3866 18.4323 26.116 18.4323" stroke="#EDEBEB" stroke-width="2.08336" stroke-linecap="round" stroke-linejoin="round"/>
<path d="M16.932 20.9064C19.4681 20.9064 21.5239 18.9127 21.5239 16.4532C21.5239 13.9937 19.4681 12 16.932 12C14.3959 12 12.3401 13.9937 12.3401 16.4532C12.3401 18.9127 14.3959 20.9064 16.932 20.9064ZM25.9458 19.9168C26.6675 19.9168 27.3596 19.6387 27.8699 19.1438C28.3802 18.649 28.6669 17.9777 28.6669 17.2778C28.6669 16.578 28.3802 15.9067 27.8699 15.4118C27.3596 14.917 26.6675 14.6389 25.9458 14.6389C25.2241 14.6389 24.5319 14.917 24.0216 15.4118C23.5113 15.9067 23.2246 16.578 23.2246 17.2778C23.2246 17.9777 23.5113 18.649 24.0216 19.1438C24.5319 19.6387 25.2241 19.9168 25.9458 19.9168ZM23.5648 27.8335C25.4434 27.8335 26.9662 26.3567 26.9662 24.5349C26.9662 22.713 25.4434 21.2362 23.5648 21.2362C21.6862 21.2362 20.1634 22.713 20.1634 24.5349C20.1634 26.3567 21.6862 27.8335 23.5648 27.8335Z" stroke="white" stroke-width="0.833344" stroke-linecap="round" stroke-linejoin="round"/>
<path d="M23.5647 27.8335C25.4434 27.8335 26.9662 26.3567 26.9662 24.5349C26.9662 22.713 25.4434 21.2362 23.5647 21.2362C21.6861 21.2362 20.1633 22.713 20.1633 24.5349C20.1633 26.3567 21.6861 27.8335 23.5647 27.8335Z" stroke="white" stroke-width="0.833344" stroke-linecap="round" stroke-linejoin="round"/>
</svg>
