<svg width="41" height="40" viewBox="0 0 41 40" fill="none" xmlns="http://www.w3.org/2000/svg">
<rect width="41" height="40" rx="5" fill="#FF2D2D" fill-opacity="0.6"/>
<path d="M20.8199 13.58L19.9999 14.402L19.1759 13.578C18.3249 12.7259 17.2124 12.1842 16.0168 12.04C14.8212 11.8957 13.6118 12.1571 12.5825 12.7822C11.5532 13.4074 10.7637 14.3601 10.3406 15.4876C9.9174 16.615 9.88513 17.8519 10.2489 19H11.8539C11.4748 18.1739 11.398 17.2408 11.637 16.3638C11.8761 15.4869 12.4157 14.7218 13.1616 14.2024C13.9075 13.6829 14.8123 13.4422 15.7177 13.5221C16.6231 13.6021 17.4716 13.9978 18.1149 14.64L19.4729 15.997C19.5436 16.0677 19.6277 16.1236 19.7202 16.1614C19.8128 16.1991 19.912 16.218 20.0119 16.2169C20.1119 16.2158 20.2107 16.1947 20.3024 16.1548C20.3941 16.115 20.4769 16.0573 20.5459 15.985L21.8799 14.64C22.5237 13.9978 23.3725 13.6021 24.2782 13.522C25.1839 13.4419 26.089 13.6824 26.8355 14.2015C27.582 14.7207 28.1224 15.4855 28.3625 16.3625C28.6025 17.2395 28.5269 18.173 28.1489 19H29.7539C30.1148 17.8517 30.0802 16.6155 29.6556 15.4892C29.231 14.3629 28.441 13.4115 27.4119 12.7872C26.3828 12.1629 25.1741 11.9017 23.9791 12.0454C22.784 12.1891 21.6717 12.7294 20.8199 13.58ZM19.4699 29.075L12.8939 22.5H14.8569C14.9079 22.5 14.9589 22.497 15.0089 22.493L19.9999 27.484L24.9879 22.499H27.1099L20.5299 29.075C20.3893 29.2154 20.1987 29.2943 19.9999 29.2943C19.8012 29.2943 19.6105 29.2154 19.4699 29.075ZM17.4199 16.415C17.357 16.2893 17.26 16.1839 17.1401 16.1107C17.0202 16.0375 16.8821 15.9994 16.7415 16.0009C16.601 16.0023 16.4638 16.0432 16.3454 16.1189C16.227 16.1946 16.1322 16.302 16.0719 16.429L14.3819 19.999H10.7499C10.551 19.999 10.3602 20.078 10.2196 20.2186C10.0789 20.3593 9.99992 20.55 9.99992 20.749C9.99992 20.9479 10.0789 21.1386 10.2196 21.2793C10.3602 21.4199 10.551 21.499 10.7499 21.499H14.8569C14.999 21.499 15.1381 21.4587 15.2581 21.3827C15.3781 21.3068 15.4741 21.1983 15.5349 21.07L16.7689 18.464L19.3289 23.584C19.3865 23.6994 19.4728 23.7981 19.5797 23.8705C19.6865 23.9428 19.8102 23.9864 19.9388 23.9969C20.0674 24.0075 20.1966 23.9847 20.3138 23.9307C20.431 23.8768 20.5323 23.7935 20.6079 23.689L23.3059 19.953L24.4359 21.243C24.5062 21.3235 24.5929 21.3881 24.6901 21.4324C24.7874 21.4768 24.893 21.4998 24.9999 21.5H29.2499C29.4488 21.5 29.6396 21.4209 29.7803 21.2803C29.9209 21.1396 29.9999 20.9489 29.9999 20.75C29.9999 20.551 29.9209 20.3603 29.7803 20.2196C29.6396 20.079 29.4488 20 29.2499 20H25.3399L23.8139 18.257C23.7397 18.1721 23.6473 18.1051 23.5436 18.0609C23.4399 18.0166 23.3275 17.9964 23.2149 18.0016C23.1023 18.0067 22.9923 18.0373 22.8931 18.0908C22.7939 18.1444 22.708 18.2196 22.6419 18.311L20.1169 21.807L17.4209 16.415H17.4199Z" fill="white"/>
</svg>
