<svg width="36" height="36" viewBox="0 0 36 36" fill="none" xmlns="http://www.w3.org/2000/svg">
<mask id="path-1-inside-1_1_2552" fill="white">
<path d="M29.6854 18.7262C29.4482 18.4563 29.3174 18.1093 29.3174 17.75C29.3174 17.3907 29.4482 17.0437 29.6854 16.7737L31.5787 14.6437C31.7873 14.411 31.9169 14.1182 31.9488 13.8073C31.9807 13.4964 31.9132 13.1833 31.7562 12.9131L28.7979 7.79519C28.6424 7.52527 28.4057 7.31132 28.1215 7.18383C27.8373 7.05633 27.5201 7.02182 27.2152 7.08519L24.4343 7.64727C24.0805 7.72038 23.7121 7.66145 23.3987 7.4816C23.0854 7.30175 22.8487 7.01342 22.7333 6.67102L21.831 3.96414C21.7318 3.67035 21.5427 3.41517 21.2905 3.23468C21.0384 3.05419 20.7359 2.95751 20.4258 2.95831H14.5091C14.1866 2.94147 13.8674 3.03068 13.6003 3.2123C13.3332 3.39393 13.1329 3.65798 13.0299 3.96414L12.2016 6.67102C12.0862 7.01342 11.8495 7.30175 11.5362 7.4816C11.2228 7.66145 10.8544 7.72038 10.5006 7.64727L7.64578 7.08519C7.35668 7.04433 7.06195 7.08995 6.79873 7.2163C6.53551 7.34264 6.31557 7.54406 6.16662 7.79519L3.20828 12.9131C3.04729 13.1803 2.9749 13.4916 3.00147 13.8024C3.02803 14.1132 3.1522 14.4077 3.3562 14.6437L5.23474 16.7737C5.47188 17.0437 5.60266 17.3907 5.60266 17.75C5.60266 18.1093 5.47188 18.4563 5.23474 18.7262L3.3562 20.8562C3.1522 21.0922 3.02803 21.3867 3.00147 21.6975C2.9749 22.0084 3.04729 22.3196 3.20828 22.5869L6.16662 27.7048C6.32207 27.9747 6.55877 28.1886 6.84297 28.3161C7.12716 28.4436 7.44436 28.4781 7.74932 28.4148L10.5302 27.8527C10.884 27.7796 11.2524 27.8385 11.5657 28.0184C11.8791 28.1982 12.1158 28.4865 12.2312 28.8289L13.1335 31.5358C13.2364 31.842 13.4367 32.106 13.7038 32.2877C13.9709 32.4693 14.2901 32.5585 14.6127 32.5416H20.5293C20.8394 32.5424 21.1419 32.4458 21.3941 32.2653C21.6462 32.0848 21.8353 31.8296 21.9345 31.5358L22.8368 28.8289C22.9522 28.4865 23.1889 28.1982 23.5023 28.0184C23.8157 27.8385 24.184 27.7796 24.5379 27.8527L27.3187 28.4148C27.6237 28.4781 27.9409 28.4436 28.2251 28.3161C28.5093 28.1886 28.746 27.9747 28.9014 27.7048L31.8597 22.5869C32.0168 22.3166 32.0842 22.0036 32.0523 21.6927C32.0204 21.3818 31.8909 21.0889 31.6822 20.8562L29.6854 18.7262ZM27.4814 20.7083L28.6647 22.0396L26.7714 25.3233L25.026 24.9683C23.9607 24.7505 22.8525 24.9315 21.9117 25.4769C20.971 26.0222 20.2633 26.894 19.9229 27.9266L19.3608 29.5833H15.5741L15.0416 27.8971C14.7012 26.8644 13.9935 25.9926 13.0527 25.4473C12.112 24.9019 11.0038 24.721 9.93849 24.9387L8.19307 25.2937L6.27016 22.0248L7.45349 20.6935C8.18117 19.8799 8.58347 18.8267 8.58347 17.7352C8.58347 16.6437 8.18117 15.5904 7.45349 14.7769L6.27016 13.4456L8.16349 10.1914L9.90891 10.5464C10.9742 10.7642 12.0824 10.5832 13.0232 10.0379C13.9639 9.49255 14.6716 8.6208 15.012 7.5881L15.5741 5.91664H19.3608L19.9229 7.60289C20.2633 8.63559 20.971 9.50735 21.9117 10.0527C22.8525 10.598 23.9607 10.779 25.026 10.5612L26.7714 10.2062L28.6647 13.49L27.4814 14.8212C26.7619 15.6329 26.3646 16.6801 26.3646 17.7648C26.3646 18.8495 26.7619 19.8966 27.4814 20.7083ZM17.4674 11.8333C16.2972 11.8333 15.1533 12.1803 14.1803 12.8304C13.2073 13.4806 12.449 14.4046 12.0012 15.4858C11.5533 16.5669 11.4362 17.7565 11.6645 18.9043C11.8928 20.052 12.4563 21.1062 13.2837 21.9337C14.1112 22.7612 15.1654 23.3247 16.3132 23.553C17.4609 23.7813 18.6505 23.6641 19.7317 23.2163C20.8128 22.7684 21.7368 22.0101 22.387 21.0371C23.0371 20.0641 23.3841 18.9202 23.3841 17.75C23.3841 16.1808 22.7608 14.6759 21.6512 13.5663C20.5416 12.4567 19.0366 11.8333 17.4674 11.8333ZM17.4674 20.7083C16.8823 20.7083 16.3104 20.5348 15.8239 20.2097C15.3374 19.8847 14.9582 19.4226 14.7343 18.8821C14.5104 18.3415 14.4518 17.7467 14.566 17.1728C14.6801 16.599 14.9619 16.0719 15.3756 15.6581C15.7893 15.2444 16.3164 14.9626 16.8903 14.8485C17.4642 14.7343 18.059 14.7929 18.5996 15.0168C19.1401 15.2407 19.6021 15.6199 19.9272 16.1064C20.2523 16.5929 20.4258 17.1649 20.4258 17.75C20.4258 18.5346 20.1141 19.287 19.5593 19.8418C19.0045 20.3966 18.252 20.7083 17.4674 20.7083Z"/>
</mask>
<path d="M29.6854 18.7262C29.4482 18.4563 29.3174 18.1093 29.3174 17.75C29.3174 17.3907 29.4482 17.0437 29.6854 16.7737L31.5787 14.6437C31.7873 14.411 31.9169 14.1182 31.9488 13.8073C31.9807 13.4964 31.9132 13.1833 31.7562 12.9131L28.7979 7.79519C28.6424 7.52527 28.4057 7.31132 28.1215 7.18383C27.8373 7.05633 27.5201 7.02182 27.2152 7.08519L24.4343 7.64727C24.0805 7.72038 23.7121 7.66145 23.3987 7.4816C23.0854 7.30175 22.8487 7.01342 22.7333 6.67102L21.831 3.96414C21.7318 3.67035 21.5427 3.41517 21.2905 3.23468C21.0384 3.05419 20.7359 2.95751 20.4258 2.95831H14.5091C14.1866 2.94147 13.8674 3.03068 13.6003 3.2123C13.3332 3.39393 13.1329 3.65798 13.0299 3.96414L12.2016 6.67102C12.0862 7.01342 11.8495 7.30175 11.5362 7.4816C11.2228 7.66145 10.8544 7.72038 10.5006 7.64727L7.64578 7.08519C7.35668 7.04433 7.06195 7.08995 6.79873 7.2163C6.53551 7.34264 6.31557 7.54406 6.16662 7.79519L3.20828 12.9131C3.04729 13.1803 2.9749 13.4916 3.00147 13.8024C3.02803 14.1132 3.1522 14.4077 3.3562 14.6437L5.23474 16.7737C5.47188 17.0437 5.60266 17.3907 5.60266 17.75C5.60266 18.1093 5.47188 18.4563 5.23474 18.7262L3.3562 20.8562C3.1522 21.0922 3.02803 21.3867 3.00147 21.6975C2.9749 22.0084 3.04729 22.3196 3.20828 22.5869L6.16662 27.7048C6.32207 27.9747 6.55877 28.1886 6.84297 28.3161C7.12716 28.4436 7.44436 28.4781 7.74932 28.4148L10.5302 27.8527C10.884 27.7796 11.2524 27.8385 11.5657 28.0184C11.8791 28.1982 12.1158 28.4865 12.2312 28.8289L13.1335 31.5358C13.2364 31.842 13.4367 32.106 13.7038 32.2877C13.9709 32.4693 14.2901 32.5585 14.6127 32.5416H20.5293C20.8394 32.5424 21.1419 32.4458 21.3941 32.2653C21.6462 32.0848 21.8353 31.8296 21.9345 31.5358L22.8368 28.8289C22.9522 28.4865 23.1889 28.1982 23.5023 28.0184C23.8157 27.8385 24.184 27.7796 24.5379 27.8527L27.3187 28.4148C27.6237 28.4781 27.9409 28.4436 28.2251 28.3161C28.5093 28.1886 28.746 27.9747 28.9014 27.7048L31.8597 22.5869C32.0168 22.3166 32.0842 22.0036 32.0523 21.6927C32.0204 21.3818 31.8909 21.0889 31.6822 20.8562L29.6854 18.7262ZM27.4814 20.7083L28.6647 22.0396L26.7714 25.3233L25.026 24.9683C23.9607 24.7505 22.8525 24.9315 21.9117 25.4769C20.971 26.0222 20.2633 26.894 19.9229 27.9266L19.3608 29.5833H15.5741L15.0416 27.8971C14.7012 26.8644 13.9935 25.9926 13.0527 25.4473C12.112 24.9019 11.0038 24.721 9.93849 24.9387L8.19307 25.2937L6.27016 22.0248L7.45349 20.6935C8.18117 19.8799 8.58347 18.8267 8.58347 17.7352C8.58347 16.6437 8.18117 15.5904 7.45349 14.7769L6.27016 13.4456L8.16349 10.1914L9.90891 10.5464C10.9742 10.7642 12.0824 10.5832 13.0232 10.0379C13.9639 9.49255 14.6716 8.6208 15.012 7.5881L15.5741 5.91664H19.3608L19.9229 7.60289C20.2633 8.63559 20.971 9.50735 21.9117 10.0527C22.8525 10.598 23.9607 10.779 25.026 10.5612L26.7714 10.2062L28.6647 13.49L27.4814 14.8212C26.7619 15.6329 26.3646 16.6801 26.3646 17.7648C26.3646 18.8495 26.7619 19.8966 27.4814 20.7083ZM17.4674 11.8333C16.2972 11.8333 15.1533 12.1803 14.1803 12.8304C13.2073 13.4806 12.449 14.4046 12.0012 15.4858C11.5533 16.5669 11.4362 17.7565 11.6645 18.9043C11.8928 20.052 12.4563 21.1062 13.2837 21.9337C14.1112 22.7612 15.1654 23.3247 16.3132 23.553C17.4609 23.7813 18.6505 23.6641 19.7317 23.2163C20.8128 22.7684 21.7368 22.0101 22.387 21.0371C23.0371 20.0641 23.3841 18.9202 23.3841 17.75C23.3841 16.1808 22.7608 14.6759 21.6512 13.5663C20.5416 12.4567 19.0366 11.8333 17.4674 11.8333ZM17.4674 20.7083C16.8823 20.7083 16.3104 20.5348 15.8239 20.2097C15.3374 19.8847 14.9582 19.4226 14.7343 18.8821C14.5104 18.3415 14.4518 17.7467 14.566 17.1728C14.6801 16.599 14.9619 16.0719 15.3756 15.6581C15.7893 15.2444 16.3164 14.9626 16.8903 14.8485C17.4642 14.7343 18.059 14.7929 18.5996 15.0168C19.1401 15.2407 19.6021 15.6199 19.9272 16.1064C20.2523 16.5929 20.4258 17.1649 20.4258 17.75C20.4258 18.5346 20.1141 19.287 19.5593 19.8418C19.0045 20.3966 18.252 20.7083 17.4674 20.7083Z" stroke="#2E1619" stroke-width="2.95833" mask="url(#path-1-inside-1_1_2552)"/>
</svg>
