<svg width="87" height="36" viewBox="0 0 87 36" fill="none" xmlns="http://www.w3.org/2000/svg">
<g filter="url(#filter0_d_364_3829)">
<rect x="2" y="1" width="83" height="32" rx="5" fill="url(#paint0_linear_364_3829)"/>
<path fill-rule="evenodd" clip-rule="evenodd" d="M19.7536 20.5C19.5926 20.5 19.4386 20.4335 19.3283 20.3163L16.4916 17.2952C16.2705 17.0607 16.2827 16.6915 16.5172 16.471C16.7523 16.2505 17.1216 16.2621 17.3415 16.4966L19.7477 19.058L24.6524 13.6902C24.8706 13.4516 25.2392 13.4359 25.4772 13.6529C25.7146 13.8699 25.731 14.2391 25.514 14.4765L20.1841 20.3099C20.075 20.43 19.9198 20.4989 19.7576 20.5H19.7536Z" fill="#FBFBFB"/>
<path d="M44.916 20.012H40.842L40.142 22H38.476L41.962 12.256H43.81L47.296 22H45.616L44.916 20.012ZM44.468 18.71L42.886 14.188L41.29 18.71H44.468ZM48.2797 18.108C48.2797 17.3333 48.4384 16.6473 48.7557 16.05C49.0824 15.4527 49.5211 14.9907 50.0717 14.664C50.6317 14.328 51.2524 14.16 51.9337 14.16C52.4377 14.16 52.9324 14.272 53.4177 14.496C53.9124 14.7107 54.3044 15 54.5937 15.364V11.64H56.2037V22H54.5937V20.838C54.3324 21.2113 53.9684 21.5193 53.5017 21.762C53.0444 22.0047 52.5171 22.126 51.9197 22.126C51.2477 22.126 50.6317 21.958 50.0717 21.622C49.5211 21.2767 49.0824 20.8007 48.7557 20.194C48.4384 19.578 48.2797 18.8827 48.2797 18.108ZM54.5937 18.136C54.5937 17.604 54.4817 17.142 54.2577 16.75C54.0431 16.358 53.7584 16.0593 53.4037 15.854C53.0491 15.6487 52.6664 15.546 52.2557 15.546C51.8451 15.546 51.4624 15.6487 51.1077 15.854C50.7531 16.05 50.4637 16.344 50.2397 16.736C50.0251 17.1187 49.9177 17.576 49.9177 18.108C49.9177 18.64 50.0251 19.1067 50.2397 19.508C50.4637 19.9093 50.7531 20.2173 51.1077 20.432C51.4717 20.6373 51.8544 20.74 52.2557 20.74C52.6664 20.74 53.0491 20.6373 53.4037 20.432C53.7584 20.2267 54.0431 19.928 54.2577 19.536C54.4817 19.1347 54.5937 18.668 54.5937 18.136ZM57.768 18.108C57.768 17.3333 57.9267 16.6473 58.244 16.05C58.5707 15.4527 59.0093 14.9907 59.56 14.664C60.12 14.328 60.7407 14.16 61.422 14.16C61.926 14.16 62.4207 14.272 62.906 14.496C63.4007 14.7107 63.7927 15 64.082 15.364V11.64H65.692V22H64.082V20.838C63.8207 21.2113 63.4567 21.5193 62.99 21.762C62.5327 22.0047 62.0053 22.126 61.408 22.126C60.736 22.126 60.12 21.958 59.56 21.622C59.0093 21.2767 58.5707 20.8007 58.244 20.194C57.9267 19.578 57.768 18.8827 57.768 18.108ZM64.082 18.136C64.082 17.604 63.97 17.142 63.746 16.75C63.5313 16.358 63.2467 16.0593 62.892 15.854C62.5373 15.6487 62.1547 15.546 61.744 15.546C61.3333 15.546 60.9507 15.6487 60.596 15.854C60.2413 16.05 59.952 16.344 59.728 16.736C59.5133 17.1187 59.406 17.576 59.406 18.108C59.406 18.64 59.5133 19.1067 59.728 19.508C59.952 19.9093 60.2413 20.2173 60.596 20.432C60.96 20.6373 61.3427 20.74 61.744 20.74C62.1547 20.74 62.5373 20.6373 62.892 20.432C63.2467 20.2267 63.5313 19.928 63.746 19.536C63.97 19.1347 64.082 18.668 64.082 18.136Z" fill="#FBFBFB"/>
</g>
<defs>
<filter id="filter0_d_364_3829" x="0" y="0" width="87" height="36" filterUnits="userSpaceOnUse" color-interpolation-filters="sRGB">
<feFlood flood-opacity="0" result="BackgroundImageFix"/>
<feColorMatrix in="SourceAlpha" type="matrix" values="0 0 0 0 0 0 0 0 0 0 0 0 0 0 0 0 0 0 127 0" result="hardAlpha"/>
<feOffset dy="1"/>
<feGaussianBlur stdDeviation="1"/>
<feComposite in2="hardAlpha" operator="out"/>
<feColorMatrix type="matrix" values="0 0 0 0 0 0 0 0 0 0 0 0 0 0 0 0 0 0 0.25 0"/>
<feBlend mode="normal" in2="BackgroundImageFix" result="effect1_dropShadow_364_3829"/>
<feBlend mode="normal" in="SourceGraphic" in2="effect1_dropShadow_364_3829" result="shape"/>
</filter>
<linearGradient id="paint0_linear_364_3829" x1="15.1921" y1="-37.9091" x2="106.365" y2="9.19418" gradientUnits="userSpaceOnUse">
<stop offset="0.00315941" stop-color="#FF7594"/>
<stop offset="0.942708" stop-color="#FF7C65"/>
</linearGradient>
</defs>
</svg>
