<svg width="26" height="26" viewBox="0 0 26 26" fill="none" xmlns="http://www.w3.org/2000/svg">
<path d="M4.69444 0C3.4494 0 2.25535 0.494592 1.37497 1.37497C0.494592 2.25535 0 3.4494 0 4.69444V21.3056C0 22.5506 0.494592 23.7446 1.37497 24.625C2.25535 25.5054 3.4494 26 4.69444 26H21.3056C22.5506 26 23.7446 25.5054 24.625 24.625C25.5054 23.7446 26 22.5506 26 21.3056V4.69444C26 3.4494 25.5054 2.25535 24.625 1.37497C23.7446 0.494592 22.5506 0 21.3056 0H4.69444ZM19.1822 9.79333L11.96 17.0156C11.7569 17.2184 11.4815 17.3324 11.1944 17.3324C10.9074 17.3324 10.632 17.2184 10.4289 17.0156L7.53422 14.1209C7.42778 14.0217 7.34242 13.9021 7.28321 13.7692C7.22399 13.6363 7.19216 13.4929 7.18959 13.3474C7.18702 13.202 7.21378 13.0575 7.26827 12.9226C7.32275 12.7877 7.40385 12.6651 7.50672 12.5623C7.60959 12.4594 7.73213 12.3783 7.86703 12.3238C8.00192 12.2693 8.14641 12.2426 8.29187 12.2451C8.43733 12.2477 8.58078 12.2796 8.71367 12.3388C8.84655 12.398 8.96616 12.4833 9.06533 12.5898L11.1944 14.7174L17.6511 8.26078C17.7511 8.15736 17.8707 8.07488 18.0029 8.01817C18.1351 7.96146 18.2772 7.93164 18.4211 7.93046C18.5649 7.92928 18.7076 7.95675 18.8407 8.01129C18.9738 8.06582 19.0947 8.14632 19.1964 8.24808C19.298 8.34985 19.3784 8.47084 19.4328 8.604C19.4872 8.73717 19.5146 8.87983 19.5133 9.02367C19.512 9.16752 19.482 9.30966 19.4252 9.4418C19.3683 9.57395 19.2857 9.69345 19.1822 9.79333Z" fill="#FF7594"/>
</svg>
