<svg width="83" height="42" viewBox="0 0 83 42" fill="none" xmlns="http://www.w3.org/2000/svg">
<rect x="0.5" y="1.37891" width="82" height="39.2424" rx="19.6212" fill="white"/>
<rect x="0.5" y="1.37891" width="82" height="39.2424" rx="19.6212" stroke="#FDDAD6"/>
<circle cx="62.8788" cy="21.0001" r="19.2828" fill="#FFEBEB"/>
<path d="M59.0469 17.8228C57.6477 19.6211 57.6722 22.8158 59.4605 24.3994C61.4908 26.1963 64.3482 26.1776 66.1451 24.5248C68.2994 22.542 68.1755 19.2422 66.2705 17.3732C64.3554 15.4942 60.9331 15.3962 59.0469 17.8228Z" fill="#FCC11A"/>
<path d="M61.2935 17.206C60.7401 16.9611 60.1349 17.6282 59.8712 18.0836C59.6075 18.5404 59.3626 19.4352 59.9245 19.6643C60.4865 19.892 60.89 19.5058 61.2949 18.8387C61.6969 18.1715 61.9261 17.487 61.2935 17.206Z" fill="#FEE269"/>
<path d="M62.7341 14.6986C62.6001 14.9494 62.6447 15.1424 62.9113 15.2058C63.1779 15.2693 64.8365 15.5387 64.9762 15.5474C65.1794 15.5603 65.2543 15.4076 65.2298 15.2303C65.2039 15.0531 64.799 12.5703 64.7615 12.3426C64.7241 12.115 64.4834 11.8873 64.2543 12.1913C64.0252 12.4954 62.8349 14.5099 62.7341 14.6986ZM67.0282 16.422C66.7674 16.5027 66.7746 16.6627 66.9143 16.8658C67.0541 17.069 68.0167 18.5374 68.1046 18.6397C68.1939 18.7406 68.3452 18.7665 68.472 18.6137C68.5988 18.4624 70.181 16.2434 70.2963 16.105C70.4865 15.8773 70.3727 15.6367 70.0816 15.7116C69.8597 15.7707 67.1924 16.3716 67.0282 16.422ZM69.0167 20.6916C68.8294 20.585 68.5859 20.6153 68.5225 20.8559C68.4591 21.0965 68.181 22.8444 68.155 22.9972C68.1291 23.1499 68.2444 23.3012 68.4331 23.2638C68.6219 23.2263 71.2358 22.8387 71.4102 22.7955C71.7142 22.7191 71.8151 22.415 71.4995 22.1874C71.2949 22.0389 69.194 20.7925 69.0167 20.6916ZM66.9259 24.833C67.1276 24.7249 67.3063 24.807 67.3567 25.0362C67.4071 25.2638 67.9648 27.5953 68.0541 28.0262C68.0988 28.2423 67.851 28.4196 67.6492 28.2928C67.4461 28.166 65.2443 26.6313 65.103 26.506C64.8999 26.3287 65.0411 26.1443 65.1405 26.0506C65.3422 25.859 66.7357 24.9353 66.9259 24.833ZM60.7945 26.1126C60.5395 26.0881 60.4645 26.3157 60.5035 26.5175C60.5409 26.7207 60.9213 29.2899 60.9473 29.4816C60.9847 29.7597 61.2773 29.8749 61.466 29.5954C61.6548 29.3159 62.9574 27.2322 63.0626 27.0362C63.2528 26.6818 63.1131 26.6054 62.9228 26.5175C62.7341 26.4296 61.0611 26.1385 60.7945 26.1126ZM57.1474 23.1615C57.3247 22.8704 57.5523 22.9468 57.7181 23.2249C57.8304 23.4151 58.7815 24.6947 58.8708 24.833C58.9602 24.9728 58.9976 25.2379 58.7195 25.3013C58.4385 25.3661 56.1719 25.9613 55.8174 26.0247C55.4629 26.0881 55.2598 25.81 55.4874 25.5059C55.62 25.3272 57.0466 23.3272 57.1474 23.1615ZM56.6661 20.9568C56.9904 21.1009 57.1431 21.049 57.2108 20.817C57.3002 20.5129 57.5653 19.1195 57.5783 18.8025C57.5869 18.5965 57.5019 18.3976 57.1849 18.448C56.8679 18.4985 54.5883 18.8169 54.2972 18.9178C53.9586 19.036 53.9831 19.4077 54.2078 19.5259C54.4744 19.6657 56.437 20.8559 56.6661 20.9568ZM60.6058 15.6367C60.7888 15.4912 60.7326 15.2822 60.5683 15.1684C60.404 15.0545 58.3694 13.5833 58.1114 13.3816C57.8838 13.2043 57.6042 13.2677 57.6806 13.6727C57.7353 13.9637 58.3838 16.5114 58.4285 16.6872C58.4789 16.8903 58.6316 16.9912 58.8089 16.8644C58.9832 16.739 60.4156 15.7894 60.6058 15.6367Z" fill="#FFA722"/>
</svg>
