<svg width="18" height="11" viewBox="0 0 18 11" fill="none" xmlns="http://www.w3.org/2000/svg">
<path d="M1.23269 1.12284C1.46178 0.88411 1.77246 0.75 2.09641 0.75C2.42035 0.75 2.73103 0.88411 2.96012 1.12284L9.00738 7.42625L15.0546 1.12284C15.285 0.890876 15.5936 0.762522 15.9139 0.765424C16.2343 0.768325 16.5407 0.902249 16.7672 1.13835C16.9937 1.37445 17.1222 1.69384 17.125 2.02773C17.1277 2.36161 17.0046 2.68328 16.7821 2.92345L9.87109 10.1272C9.642 10.3659 9.33132 10.5 9.00738 10.5C8.68343 10.5 8.37275 10.3659 8.14366 10.1272L1.23269 2.92345C1.00366 2.68465 0.875 2.36081 0.875 2.02314C0.875 1.68548 1.00366 1.36164 1.23269 1.12284Z" fill="#384449"/>
</svg>
